<?xml version="1.0" encoding="UTF-8" standalone="no"?>
<svg
   id="ic_staking_off"
   width="24"
   height="24"
   viewBox="0 0 24 24"
   shape-rendering="geometricPrecision"
   version="1.1"
   sodipodi:docname="ic-check-staking-off.svg"
   inkscape:version="1.1 (c68e22c387, 2021-05-23)"
   xmlns:inkscape="http://www.inkscape.org/namespaces/inkscape"
   xmlns:sodipodi="http://sodipodi.sourceforge.net/DTD/sodipodi-0.dtd"
   xmlns="http://www.w3.org/2000/svg"
   xmlns:svg="http://www.w3.org/2000/svg">
  <sodipodi:namedview
     id="namedview9"
     pagecolor="#ffffff"
     bordercolor="#666666"
     borderopacity="1.0"
     inkscape:pageshadow="2"
     inkscape:pageopacity="0.0"
     inkscape:pagecheckerboard="0"
     showgrid="false"
     inkscape:zoom="27.166667"
     inkscape:cx="11.981595"
     inkscape:cy="11.981595"
     inkscape:window-width="1600"
     inkscape:window-height="837"
     inkscape:window-x="-8"
     inkscape:window-y="-8"
     inkscape:window-maximized="1"
     inkscape:current-layer="ic_staking_off" />
  <defs
     id="defs4">
    <style
       type="text/css"
       id="style2"><![CDATA[
.cls-1 {
  fill:#4dbd3f;
}
.cls-2 {
  fill:none;
}
]]></style>
  </defs>
  <path
     id="Path_18914"
     d="M18 6V4.854a3 3 0 0 0-5.964-.3L12 4.586l-.033-.033A3 3 0 0 0 6 5v1H2v6h2v10h16V12h2V6zm-4-.586V5a1 1 0 0 1 2 0v1h-2.586zM13 8v8h-2V8zM8 5a1 1 0 0 1 2 0v.414l.586.586H8zM4 8h5v2H4zm14 12H6v-8h3v6h6v-6h3zm2-10h-5V8h5z"
     class="cls-1"
     data-name="Path 18914" />
  <path
     id="Rectangle_4527"
     d="M0 0h24v24H0z"
     class="cls-2"
     data-name="Rectangle 4527" />
</svg>
