<?xml version="1.0" encoding="UTF-8" standalone="no"?>
<svg
   width="300px"
   height="100px"
   viewBox="0 0 300 100"
   version="1.1"
   id="svg27"
   sodipodi:docname="img-logo-pivx.svg"
   inkscape:version="1.1 (c68e22c387, 2021-05-23)"
   xmlns:inkscape="http://www.inkscape.org/namespaces/inkscape"
   xmlns:sodipodi="http://sodipodi.sourceforge.net/DTD/sodipodi-0.dtd"
   xmlns:xlink="http://www.w3.org/1999/xlink"
   xmlns="http://www.w3.org/2000/svg"
   xmlns:svg="http://www.w3.org/2000/svg"
   xmlns:rdf="http://www.w3.org/1999/02/22-rdf-syntax-ns#"
   xmlns:cc="http://creativecommons.org/ns#"
   xmlns:dc="http://purl.org/dc/elements/1.1/">
  <metadata
     id="metadata33">
    <rdf:RDF>
      <cc:Work
         rdf:about="">
        <dc:format>image/svg+xml</dc:format>
        <dc:type
           rdf:resource="http://purl.org/dc/dcmitype/StillImage" />
        <dc:title>Artboard</dc:title>
      </cc:Work>
    </rdf:RDF>
  </metadata>
  <defs
     id="defs31">
    <linearGradient
       inkscape:collect="always"
       xlink:href="#linearGradient987"
       id="linearGradient993"
       x1="-902.44189"
       y1="121.56252"
       x2="-894.97089"
       y2="121.56252"
       gradientUnits="userSpaceOnUse"
       spreadMethod="pad"
       gradientTransform="matrix(3.7795276,0,0,3.7795276,3424.5215,-410.2571)" />
    <linearGradient
       inkscape:collect="always"
       id="linearGradient987">
      <stop
         style="stop-color:#42963e;stop-opacity:1"
         offset="0"
         id="stop983" />
      <stop
         style="stop-color:#5fba5c;stop-opacity:1"
         offset="1"
         id="stop985" />
    </linearGradient>
  </defs>
  <sodipodi:namedview
     pagecolor="#ffffff"
     bordercolor="#666666"
     borderopacity="1"
     objecttolerance="10"
     gridtolerance="10"
     guidetolerance="10"
     inkscape:pageopacity="0"
     inkscape:pageshadow="2"
     inkscape:window-width="1584"
     inkscape:window-height="861"
     id="namedview29"
     showgrid="false"
     inkscape:zoom="2.9604204"
     inkscape:cx="85.29194"
     inkscape:cy="56.917592"
     inkscape:window-x="0"
     inkscape:window-y="0"
     inkscape:window-maximized="0"
     inkscape:current-layer="layer2"
     inkscape:pagecheckerboard="0" />
  <!-- Generator: Sketch 53.2 (72643) - https://sketchapp.com -->
  <title
     id="title2">Artboard</title>
  <desc
     id="desc4">Created with Sketch.</desc>
  <g
     inkscape:groupmode="layer"
     id="layer2"
     inkscape:label="Layer 2"
     style="display:inline">
    <circle
       style="display:inline;fill:#ffffff;fill-opacity:1;stroke:#5fba5c;stroke-width:2.42492;stroke-linecap:round;stroke-miterlimit:4;stroke-dasharray:none;stroke-opacity:1"
       id="path973"
       cx="43.084686"
       cy="49.394211"
       r="38.763176" />
  </g>
  <g
     inkscape:groupmode="layer"
     id="layer1"
     inkscape:label="Layer 1"
     style="display:inline">
    <path
       d="m 120.22881,22.988802 h -12.58668 v 22.000027 h 12.58668 v -4.400005 h -7.57334 v -4.426672 h 7.25334 v -4.400006 h -7.25334 v -4.373339 h 7.57334 z"
       style="font-weight:bold;font-size:26.6667px;line-height:1.25;font-family:Hussar;-inkscape-font-specification:'Hussar, Bold';text-align:center;letter-spacing:0px;word-spacing:0px;text-anchor:middle;fill:#ffffff"
       id="path109" />
    <path
       d="m 143.6955,44.988829 -8.58667,-11.840015 7.20001,-10.160012 h -6.24001 l -4.05334,6.000007 -4.05334,-6.000007 h -5.97334 l 6.93334,10.160012 -8.32001,11.840015 h 6.21334 l 5.20001,-7.493342 5.20001,7.493342 z"
       style="font-weight:bold;font-size:26.6667px;line-height:1.25;font-family:Hussar;-inkscape-font-specification:'Hussar, Bold';text-align:center;letter-spacing:0px;word-spacing:0px;text-anchor:middle;fill:#ffffff"
       id="path111" />
    <path
       d="m 144.3888,22.988802 v 22.000027 h 5.01334 v -8.16001 h 3.01333 c 4.29334,0 7.52001,-2.533336 7.52001,-7.066675 0,-4.560006 -3.22667,-6.773342 -7.52001,-6.773342 z m 5.01334,9.840012 v -5.840007 h 1.41333 c 1.97334,0 3.84001,0.666667 3.84001,2.933337 0,2.240003 -1.86667,2.90667 -3.84001,2.90667 z"
       style="font-weight:bold;font-size:26.6667px;line-height:1.25;font-family:Hussar;-inkscape-font-specification:'Hussar, Bold';text-align:center;letter-spacing:0px;word-spacing:0px;text-anchor:middle;fill:#ffffff"
       id="path113" />
    <path
       d="m 174.73546,22.988802 h -12.58668 v 22.000027 h 12.58668 v -4.400005 h -7.57334 v -4.426672 h 7.25334 v -4.400006 h -7.25334 v -4.373339 h 7.57334 z"
       style="font-weight:bold;font-size:26.6667px;line-height:1.25;font-family:Hussar;-inkscape-font-specification:'Hussar, Bold';text-align:center;letter-spacing:0px;word-spacing:0px;text-anchor:middle;fill:#ffffff"
       id="path115" />
    <path
       d="m 177.61546,22.988802 v 22.000027 h 5.01334 v -8.693344 l 6.72001,8.693344 h 6.37334 l -7.57334,-9.093344 c 2.69334,-0.853335 4.50667,-3.066671 4.50667,-6.373342 0,-4.320005 -3.09334,-6.533341 -7.17334,-6.533341 z m 5.01334,9.760012 v -5.760007 h 0.58667 c 1.89334,0 4.16,0.133333 4.16,2.880003 0,2.74667 -2.26666,2.880004 -4.16,2.880004 z"
       style="font-weight:bold;font-size:26.6667px;line-height:1.25;font-family:Hussar;-inkscape-font-specification:'Hussar, Bold';text-align:center;letter-spacing:0px;word-spacing:0px;text-anchor:middle;fill:#ffffff"
       id="path117" />
    <path
       d="m 201.72215,22.988802 h -5.01334 v 22.000027 h 5.01334 z"
       style="font-weight:bold;font-size:26.6667px;line-height:1.25;font-family:Hussar;-inkscape-font-specification:'Hussar, Bold';text-align:center;letter-spacing:0px;word-spacing:0px;text-anchor:middle;fill:#ffffff"
       id="path119" />
    <path
       d="m 217.5088,22.988802 h -12.58668 v 22.000027 h 12.58668 v -4.400005 h -7.57334 v -4.426672 h 7.25334 v -4.400006 h -7.25334 v -4.373339 h 7.57334 z"
       style="font-weight:bold;font-size:26.6667px;line-height:1.25;font-family:Hussar;-inkscape-font-specification:'Hussar, Bold';text-align:center;letter-spacing:0px;word-spacing:0px;text-anchor:middle;fill:#ffffff"
       id="path121" />
    <path
       d="m 225.40214,31.335479 h 0.0533 l 8.74668,13.65335 h 5.01334 V 22.988802 h -5.01334 v 13.65335 h -0.0533 l -8.74668,-13.65335 h -5.01334 v 22.000027 h 5.01334 z"
       style="font-weight:bold;font-size:26.6667px;line-height:1.25;font-family:Hussar;-inkscape-font-specification:'Hussar, Bold';text-align:center;letter-spacing:0px;word-spacing:0px;text-anchor:middle;fill:#ffffff"
       id="path123" />
    <path
       d="m 254.12214,40.45549 c -5.04001,0 -7.25334,-3.520004 -7.25334,-6.480008 0,-2.933337 2.21333,-6.453341 7.25334,-6.453341 2.56,0 4.32,1.360001 4.32,1.360001 l 2.13334,-4.266672 c 0,0 -2.45334,-2.026669 -7.22668,-2.026669 -6.24,0 -11.92001,5.120007 -11.92001,11.440015 0,6.293341 5.70667,11.360014 11.92001,11.360014 4.77334,0 7.22668,-2.026669 7.22668,-2.026669 l -2.13334,-4.266672 c 0,0 -1.76,1.360001 -4.32,1.360001 z"
       style="font-weight:bold;font-size:26.6667px;line-height:1.25;font-family:Hussar;-inkscape-font-specification:'Hussar, Bold';text-align:center;letter-spacing:0px;word-spacing:0px;text-anchor:middle;fill:#ffffff"
       id="path125" />
    <path
       d="m 275.08211,22.988802 h -12.58668 v 22.000027 h 12.58668 v -4.400005 h -7.57334 v -4.426672 h 7.25334 v -4.400006 h -7.25334 v -4.373339 h 7.57334 z"
       style="font-weight:bold;font-size:26.6667px;line-height:1.25;font-family:Hussar;-inkscape-font-specification:'Hussar, Bold';text-align:center;letter-spacing:0px;word-spacing:0px;text-anchor:middle;fill:#ffffff"
       id="path127" />
    <path
       d="m 140.20216,56.322176 v 22.000027 h 5.01334 v -8.16001 h 3.01334 c 4.29334,0 7.52001,-2.533336 7.52001,-7.066675 0,-4.560006 -3.22667,-6.773342 -7.52001,-6.773342 z m 5.01334,9.840012 v -5.840007 h 1.41334 c 1.97333,0 3.84,0.666667 3.84,2.933337 0,2.240003 -1.86667,2.90667 -3.84,2.90667 z"
       style="font-weight:bold;font-size:26.6667px;line-height:1.25;font-family:Hussar;-inkscape-font-specification:'Hussar, Bold';text-align:center;letter-spacing:0px;word-spacing:0px;text-anchor:middle;fill:#ffffff"
       id="path129" />
    <path
       d="m 156.97547,67.308856 c 0,6.426675 4.58668,11.413348 11.09335,11.413348 6.32001,0 11.06668,-4.986673 11.06668,-11.413348 0,-6.426675 -4.96,-11.386681 -11.06668,-11.386681 -6.05334,0 -11.09335,4.960006 -11.09335,11.386681 z m 5.41334,0 c 0,-3.280004 1.81334,-6.560008 5.68001,-6.560008 3.89334,0 5.65334,3.280004 5.65334,6.560008 0,3.280004 -1.65333,6.560009 -5.65334,6.560009 -4.10667,0 -5.68001,-3.280005 -5.68001,-6.560009 z"
       style="font-weight:bold;font-size:26.6667px;line-height:1.25;font-family:Hussar;-inkscape-font-specification:'Hussar, Bold';text-align:center;letter-spacing:0px;word-spacing:0px;text-anchor:middle;fill:#ffffff"
       id="path131" />
    <path
       d="m 186.36215,56.322176 h -5.01334 v 22.000027 h 5.01334 z"
       style="font-weight:bold;font-size:26.6667px;line-height:1.25;font-family:Hussar;-inkscape-font-specification:'Hussar, Bold';text-align:center;letter-spacing:0px;word-spacing:0px;text-anchor:middle;fill:#ffffff"
       id="path133" />
    <path
       d="m 194.57546,64.668853 h 0.0533 l 8.74668,13.65335 h 5.01334 V 56.322176 h -5.01334 v 13.65335 h -0.0533 l -8.74667,-13.65335 h -5.01334 v 22.000027 h 5.01334 z"
       style="font-weight:bold;font-size:26.6667px;line-height:1.25;font-family:Hussar;-inkscape-font-specification:'Hussar, Bold';text-align:center;letter-spacing:0px;word-spacing:0px;text-anchor:middle;fill:#ffffff"
       id="path135" />
    <path
       d="m 210.2021,60.722181 h 5.22667 v 17.600022 h 5.01334 V 60.722181 h 5.22667 V 56.322176 H 210.2021 Z"
       style="font-weight:bold;font-size:26.6667px;line-height:1.25;font-family:Hussar;-inkscape-font-specification:'Hussar, Bold';text-align:center;letter-spacing:0px;word-spacing:0px;text-anchor:middle;fill:#ffffff"
       id="path137" />
    <path
       d="m 235.58876,55.922175 c -3.54667,0 -7.17334,2.613337 -7.17334,6.720009 0,2.293336 1.54667,4.346672 4.18667,5.65334 2.61334,1.306668 4.96001,2.026669 4.96001,3.626671 0,2.053336 -2.08001,2.160003 -3.17334,2.160003 -2.45334,0 -5.38667,-2.480003 -5.38667,-2.480003 l -2.50667,4.213339 c 0,0 3.12,2.90667 8.26667,2.90667 4.29334,0 8.29335,-1.840002 8.29335,-7.093342 0,-2.880004 -2.69334,-4.960007 -5.14668,-6.000008 -2.50667,-1.066668 -4.58667,-1.946669 -4.58667,-3.173337 0,-1.200002 0.90667,-1.973336 2.61334,-1.973336 2.26667,0 4.45334,1.520002 4.45334,1.520002 l 2.02667,-4.000005 c 0,0 -2.82667,-2.080003 -6.82668,-2.080003 z"
       style="font-weight:bold;font-size:26.6667px;line-height:1.25;font-family:Hussar;-inkscape-font-specification:'Hussar, Bold';text-align:center;letter-spacing:0px;word-spacing:0px;text-anchor:middle;fill:#ffffff"
       id="path139" />
    <path
       style="display:inline;fill:url(#linearGradient993);fill-opacity:1;stroke:none;stroke-width:0.999999px;stroke-linecap:butt;stroke-linejoin:miter;stroke-opacity:1"
       d="m 13.717361,27.963479 13.558148,0.03024 14.678778,21.197442 -14.694576,21.22896 -13.54235,-0.0302 13.447635,-20.96065 z"
       id="path840"
       inkscape:connector-curvature="0" />
    <path
       style="display:inline;fill:#5fba5c;fill-opacity:1;stroke:none;stroke-width:0.999999px;stroke-linecap:butt;stroke-linejoin:miter;stroke-opacity:1"
       d="m 36.332693,37.640851 6.85493,-9.667432 13.593751,-0.0038 -13.679698,19.558602 z"
       id="path967"
       inkscape:connector-curvature="0" />
    <path
       style="display:inline;fill:#5fba5c;fill-opacity:1;stroke:none;stroke-width:0.999999px;stroke-linecap:butt;stroke-linejoin:miter;stroke-opacity:1"
       d="m 43.125109,50.817191 -6.54686,9.53125 6.578117,10.0625 13.546885,-0.0151 z"
       id="path969"
       inkscape:connector-curvature="0" />
    <path
       style="display:inline;fill:#000000;fill-opacity:1;stroke:none;stroke-width:0.999999px;stroke-linecap:butt;stroke-linejoin:miter;stroke-opacity:1"
       d="m 47.443824,44.593131 -3.19302,4.56303 14.827124,21.25742 0.04422,-16.18613 c 0,0 13.689109,0.92807 13.468157,-12.68371 C 72.369204,27.93192 59.111075,27.976103 59.111075,27.976103 l -7.651125,10.888368 10.700523,-0.0265 c 0,0 1.856164,0.45298 1.83961,2.94444 -0.01512,2.49143 -2.055043,2.77319 -2.055043,2.77319 z"
       id="path971"
       inkscape:connector-curvature="0" />
  </g>
</svg>
